<mxfile host="app.diagrams.net" agent="Mozilla/5.0 (Windows NT 10.0; Win64; x64) AppleWebKit/537.36 (KHTML, like Gecko) Chrome/135.0.0.0 Safari/537.36" version="26.0.12">
  <diagram name="Page-1" id="B0s02PZJPCa0mZQDBSva">
    <mxGraphModel dx="1290" dy="522" grid="1" gridSize="10" guides="1" tooltips="1" connect="1" arrows="1" fold="1" page="1" pageScale="1" pageWidth="850" pageHeight="1100" math="0" shadow="0">
      <root>
        <mxCell id="0" />
        <mxCell id="1" parent="0" />
        <mxCell id="aiEGrOmzAdeWzqDheb6c-1" value="Phone Factory" style="ellipse;whiteSpace=wrap;html=1;fillColor=light-dark(#3399FF,var(--ge-dark-color, #121212));" vertex="1" parent="1">
          <mxGeometry x="170" y="120" width="120" height="80" as="geometry" />
        </mxCell>
        <mxCell id="aiEGrOmzAdeWzqDheb6c-2" value="Phone Case" style="ellipse;whiteSpace=wrap;html=1;fillColor=light-dark(#3399FF,var(--ge-dark-color, #121212));" vertex="1" parent="1">
          <mxGeometry x="480" y="120" width="120" height="80" as="geometry" />
        </mxCell>
        <mxCell id="aiEGrOmzAdeWzqDheb6c-4" value="Apply consistent layer of glue on specified phone case dimensions accurately" style="ellipse;whiteSpace=wrap;html=1;fillColor=light-dark(#3399FF,var(--ge-dark-color, #121212));" vertex="1" parent="1">
          <mxGeometry x="317.5" y="400" width="195" height="140" as="geometry" />
        </mxCell>
        <mxCell id="aiEGrOmzAdeWzqDheb6c-5" value="Who operates the system?" style="rounded=0;whiteSpace=wrap;html=1;" vertex="1" parent="1">
          <mxGeometry x="140" y="90" width="160" height="20" as="geometry" />
        </mxCell>
        <mxCell id="aiEGrOmzAdeWzqDheb6c-6" value="What does the system act upon?" style="rounded=0;whiteSpace=wrap;html=1;" vertex="1" parent="1">
          <mxGeometry x="450" y="80" width="190" height="20" as="geometry" />
        </mxCell>
        <mxCell id="aiEGrOmzAdeWzqDheb6c-7" value="Main purpose" style="rounded=0;whiteSpace=wrap;html=1;" vertex="1" parent="1">
          <mxGeometry x="322.5" y="560" width="190" height="20" as="geometry" />
        </mxCell>
        <mxCell id="aiEGrOmzAdeWzqDheb6c-8" value="System:&lt;div&gt;3D Gluing machine&lt;/div&gt;" style="ellipse;whiteSpace=wrap;html=1;fillColor=light-dark(#FFFFFF,var(--ge-dark-color, #121212));" vertex="1" parent="1">
          <mxGeometry x="340" y="230" width="150" height="100" as="geometry" />
        </mxCell>
        <mxCell id="aiEGrOmzAdeWzqDheb6c-10" value="" style="endArrow=none;html=1;rounded=0;exitX=0.5;exitY=0;exitDx=0;exitDy=0;entryX=0.5;entryY=1;entryDx=0;entryDy=0;" edge="1" parent="1" source="aiEGrOmzAdeWzqDheb6c-4" target="aiEGrOmzAdeWzqDheb6c-8">
          <mxGeometry width="50" height="50" relative="1" as="geometry">
            <mxPoint x="400" y="440" as="sourcePoint" />
            <mxPoint x="450" y="390" as="targetPoint" />
          </mxGeometry>
        </mxCell>
        <mxCell id="aiEGrOmzAdeWzqDheb6c-12" value="" style="endArrow=none;html=1;rounded=0;exitX=0.5;exitY=1;exitDx=0;exitDy=0;entryX=0.5;entryY=1;entryDx=0;entryDy=0;edgeStyle=orthogonalEdgeStyle;curved=1;" edge="1" parent="1" source="aiEGrOmzAdeWzqDheb6c-1" target="aiEGrOmzAdeWzqDheb6c-2">
          <mxGeometry width="50" height="50" relative="1" as="geometry">
            <mxPoint x="400" y="230" as="sourcePoint" />
            <mxPoint x="450" y="180" as="targetPoint" />
            <Array as="points">
              <mxPoint x="230" y="250" />
              <mxPoint x="540" y="250" />
            </Array>
          </mxGeometry>
        </mxCell>
      </root>
    </mxGraphModel>
  </diagram>
</mxfile>
